#!OML:ASF H:\Male1\Project 1\Capture day 1\Session 1\Male1.ASF
:FULLY-SPECIFIED
:DEGREES
164
root -4.98861 14.3381 4.48727 137.942 -86.2691 -116.318
lowerback 37.9894 2.2951 1.63615
upperback 17.8206 0.771918 0.837694
thorax 0.933326 -0.509305 -0.228163
lowerneck -1.03244 6.49495 10.5055
upperneck -20.3671 7.41173 -10.7479
head -5.05981 3.39912 -5.38951
rclavicle -5.06901e-015 7.01958e-015
rhumerus 28.3749 -2.91275 -68.0643
rradius 59.0983
rwrist -55.8227
rhand 5.48285 1.29496
rfingers 7.12502
rthumb 30.8304 -26.1387
lclavicle -5.06901e-015 7.01958e-015
lhumerus 30.8907 -0.0552175 55.2925
lradius 61.2592
lwrist 46.7279
lhand -9.10911 18.8707
lfingers 7.12502
lthumb 16.8414 48.1603
rfemur -57.6461 -2.27369 30.885
rtibia 52.618
rfoot -18.7574 -14.7452
rtoes -20.4133
lfemur -58.2773 2.50002 -19.1006
ltibia 58.8745
lfoot -21.6547 5.99008
ltoes -4.21644
165
root -5.02773 14.4099 4.49269 142.696 -86.3871 -121.877
lowerback 37.2266 2.35704 1.58351
upperback 17.7311 0.884526 1.24117
thorax 1.06471 -0.471488 0.186269
lowerneck -0.693429 6.2568 10.4891
upperneck -20.6328 7.10823 -10.5843
head -5.24145 3.23247 -5.35691
rclavicle 2.50966e-014 3.06501e-014
rhumerus 26.6556 -2.90587 -67.9524
rradius 60.322
rwrist -55.6604
rhand 5.75541 2.12159
rfingers 7.12502
rthumb 31.0902 -25.2627
lclavicle 2.50966e-014 3.06501e-014
lhumerus 29.2352 -0.847205 56.2298
lradius 62.0839
lwrist 46.9663
lhand -8.36344 17.6134
lfingers 7.12502
lthumb 17.5591 46.8405
rfemur -55.8775 -2.83258 30.6241
rtibia 51.3762
rfoot -18.6626 -14.2002
rtoes -20.4178
lfemur -56.3771 2.65889 -19.4717
ltibia 57.5384
lfoot -21.3723 6.13565
ltoes -5.37448
166
root -5.07073 14.4721 4.49742 150.948 -86.3742 -130.976
lowerback 36.4417 2.49498 1.34558
upperback 17.6077 1.03323 1.5563
thorax 1.16501 -0.421088 0.595307
lowerneck -0.87293 6.17449 10.2633
upperneck -20.2899 7.02617 -10.1971
head -5.14372 3.18068 -5.17403
rclavicle -7.67309e-014 -6.63941e-014
rhumerus 24.9666 -3.13897 -68.0824
rradius 61.5485
rwrist -55.4403
rhand 6.3622 1.50504
rfingers 7.12502
rthumb 31.6684 -25.7669
lclavicle -7.67309e-014 -6.63941e-014
lhumerus 27.4375 -1.53675 57.2786
lradius 62.9616
lwrist 47.2063
lhand -7.12255 16.3129
lfingers 7.12502
lthumb 18.753 45.429
rfemur -54.0939 -3.06253 30.156
rtibia 50.243
rfoot -18.7343 -13.6962
rtoes -19.7253
lfemur -54.4712 2.92933 -19.922
ltibia 56.3039
lfoot -21.0643 6.385
ltoes -6.46435
167
root -5.11735 14.5294 4.50558 157.873 -86.265 -138.682
lowerback 35.5505 2.50402 1.22089
upperback 17.4188 1.07624 1.78698
thorax 1.23961 -0.402457 0.890711
lowerneck -0.857317 6.09195 10.1441
upperneck -20.0345 6.9611 -9.84981
head -5.09758 3.136 -5.03365
rclavicle -3.22031e-014 -1.92821e-014
rhumerus 23.2832 -3.29208 -68.3996
rradius 62.5958
rwrist -55.0312
rhand 7.0956 0.632272
rfingers 7.12502
rthumb 32.3667 -26.4994
lclavicle -3.22031e-014 -1.92821e-014
lhumerus 25.4322 -2.13381 58.2267
lradius 63.916
lwrist 47.555
lhand -5.92992 14.8778
lfingers 7.12502
lthumb 19.8997 43.879
rfemur -52.3623 -3.19343 29.7056
rtibia 49.1731
rfoot -18.549 -13.3884
rtoes -20.0936
lfemur -52.7032 3.06526 -20.2512
ltibia 55.2211
lfoot -20.8421 6.69987
ltoes -7.29643
168
root -5.16786 14.586 4.5152 162.955 -86.0933 -144.653
lowerback 34.8001 2.37925 1.14918
upperback 17.2176 0.964824 1.96441
thorax 1.26616 -0.455456 1.148
lowerneck -1.03286 6.10238 10.1941
upperneck -19.5417 6.98543 -9.76113
head -4.91661 3.14467 -4.98768
rclavicle 1.31198e-014 1.66979e-014
rhumerus 21.7698 -2.98327 -68.5978
rradius 63.3731
rwrist -54.633
rhand 7.45143 0.320929
rfingers 7.12502
rthumb 32.7053 -26.741
lclavicle 1.31198e-014 1.66979e-014
lhumerus 23.2548 -2.5737 58.8424
lradius 64.9075
lwrist 48.0389
lhand -5.24936 14.1405
lfingers 7.12502
lthumb 20.5538 43.0724
rfemur -50.4746 -3.18426 29.2372
rtibia 48.1634
rfoot -18.4637 -13.2474
rtoes -20.5769
lfemur -50.8647 3.02264 -20.4267
ltibia 54.3433
lfoot -20.7752 7.03043
ltoes -7.3969
